<mxfile host="Electron" modified="2023-05-04T00:07:02.882Z" agent="Mozilla/5.0 (Windows NT 10.0; Win64; x64) AppleWebKit/537.36 (KHTML, like Gecko) draw.io/21.2.1 Chrome/112.0.5615.87 Electron/24.1.2 Safari/537.36" etag="Yo3OlJYAnwGshSn4v0Pj" version="21.2.1" type="device">
  <diagram name="Page-1" id="2IcTObrX_a3cjCZgbylO">
    <mxGraphModel dx="2391" dy="1206" grid="1" gridSize="10" guides="1" tooltips="1" connect="1" arrows="1" fold="1" page="1" pageScale="1" pageWidth="850" pageHeight="1100" math="0" shadow="0">
      <root>
        <mxCell id="0" />
        <mxCell id="1" parent="0" />
        <mxCell id="aR6v79AuM1WaJ04Hbi6L-5" value="" style="edgeStyle=orthogonalEdgeStyle;rounded=0;orthogonalLoop=1;jettySize=auto;html=1;" edge="1" parent="1" source="aR6v79AuM1WaJ04Hbi6L-1" target="aR6v79AuM1WaJ04Hbi6L-3">
          <mxGeometry relative="1" as="geometry" />
        </mxCell>
        <mxCell id="aR6v79AuM1WaJ04Hbi6L-1" value="Inicio" style="ellipse;whiteSpace=wrap;html=1;" vertex="1" parent="1">
          <mxGeometry x="130" width="80" height="40" as="geometry" />
        </mxCell>
        <mxCell id="aR6v79AuM1WaJ04Hbi6L-6" value="" style="edgeStyle=orthogonalEdgeStyle;rounded=0;orthogonalLoop=1;jettySize=auto;html=1;" edge="1" parent="1" source="aR6v79AuM1WaJ04Hbi6L-3" target="aR6v79AuM1WaJ04Hbi6L-4">
          <mxGeometry relative="1" as="geometry" />
        </mxCell>
        <mxCell id="aR6v79AuM1WaJ04Hbi6L-3" value="Pos, Neg, Cont,&lt;br&gt;Val, Par, Imp, Cer,&lt;br&gt;PorPar, PorImp" style="shape=parallelogram;perimeter=parallelogramPerimeter;whiteSpace=wrap;html=1;fixedSize=1;" vertex="1" parent="1">
          <mxGeometry x="90" y="60" width="160" height="60" as="geometry" />
        </mxCell>
        <mxCell id="aR6v79AuM1WaJ04Hbi6L-9" value="" style="edgeStyle=orthogonalEdgeStyle;rounded=0;orthogonalLoop=1;jettySize=auto;html=1;" edge="1" parent="1" source="aR6v79AuM1WaJ04Hbi6L-4" target="aR6v79AuM1WaJ04Hbi6L-7">
          <mxGeometry relative="1" as="geometry" />
        </mxCell>
        <mxCell id="aR6v79AuM1WaJ04Hbi6L-80" value="" style="edgeStyle=orthogonalEdgeStyle;rounded=0;orthogonalLoop=1;jettySize=auto;html=1;" edge="1" parent="1" source="aR6v79AuM1WaJ04Hbi6L-4" target="aR6v79AuM1WaJ04Hbi6L-79">
          <mxGeometry relative="1" as="geometry" />
        </mxCell>
        <mxCell id="aR6v79AuM1WaJ04Hbi6L-4" value="Cont=1;&lt;br&gt;Cont&amp;lt;=10;&lt;br&gt;Cont++" style="rhombus;whiteSpace=wrap;html=1;" vertex="1" parent="1">
          <mxGeometry x="130" y="140" width="80" height="80" as="geometry" />
        </mxCell>
        <mxCell id="aR6v79AuM1WaJ04Hbi6L-10" value="" style="edgeStyle=orthogonalEdgeStyle;rounded=0;orthogonalLoop=1;jettySize=auto;html=1;" edge="1" parent="1" source="aR6v79AuM1WaJ04Hbi6L-7" target="aR6v79AuM1WaJ04Hbi6L-8">
          <mxGeometry relative="1" as="geometry" />
        </mxCell>
        <mxCell id="aR6v79AuM1WaJ04Hbi6L-7" value="&quot;Ingrese un valor&lt;br&gt;Entero&quot;" style="shape=document;whiteSpace=wrap;html=1;boundedLbl=1;" vertex="1" parent="1">
          <mxGeometry x="110" y="240" width="120" height="80" as="geometry" />
        </mxCell>
        <mxCell id="aR6v79AuM1WaJ04Hbi6L-12" value="" style="edgeStyle=orthogonalEdgeStyle;rounded=0;orthogonalLoop=1;jettySize=auto;html=1;" edge="1" parent="1" source="aR6v79AuM1WaJ04Hbi6L-8" target="aR6v79AuM1WaJ04Hbi6L-11">
          <mxGeometry relative="1" as="geometry" />
        </mxCell>
        <mxCell id="aR6v79AuM1WaJ04Hbi6L-8" value="Val" style="shape=parallelogram;perimeter=parallelogramPerimeter;whiteSpace=wrap;html=1;fixedSize=1;" vertex="1" parent="1">
          <mxGeometry x="90" y="340" width="160" height="60" as="geometry" />
        </mxCell>
        <mxCell id="aR6v79AuM1WaJ04Hbi6L-15" value="" style="edgeStyle=orthogonalEdgeStyle;rounded=0;orthogonalLoop=1;jettySize=auto;html=1;" edge="1" parent="1" source="aR6v79AuM1WaJ04Hbi6L-11" target="aR6v79AuM1WaJ04Hbi6L-14">
          <mxGeometry relative="1" as="geometry" />
        </mxCell>
        <mxCell id="aR6v79AuM1WaJ04Hbi6L-22" value="" style="edgeStyle=orthogonalEdgeStyle;rounded=0;orthogonalLoop=1;jettySize=auto;html=1;" edge="1" parent="1" source="aR6v79AuM1WaJ04Hbi6L-11" target="aR6v79AuM1WaJ04Hbi6L-17">
          <mxGeometry relative="1" as="geometry" />
        </mxCell>
        <mxCell id="aR6v79AuM1WaJ04Hbi6L-11" value="Val &amp;gt; 0" style="rhombus;whiteSpace=wrap;html=1;" vertex="1" parent="1">
          <mxGeometry x="130" y="420" width="80" height="80" as="geometry" />
        </mxCell>
        <mxCell id="aR6v79AuM1WaJ04Hbi6L-39" value="" style="edgeStyle=orthogonalEdgeStyle;rounded=0;orthogonalLoop=1;jettySize=auto;html=1;" edge="1" parent="1" source="aR6v79AuM1WaJ04Hbi6L-14" target="aR6v79AuM1WaJ04Hbi6L-30">
          <mxGeometry relative="1" as="geometry" />
        </mxCell>
        <mxCell id="aR6v79AuM1WaJ04Hbi6L-14" value="&quot;El valor es Positivo&quot;" style="shape=document;whiteSpace=wrap;html=1;boundedLbl=1;" vertex="1" parent="1">
          <mxGeometry x="110" y="520" width="120" height="80" as="geometry" />
        </mxCell>
        <mxCell id="aR6v79AuM1WaJ04Hbi6L-16" value="" style="edgeStyle=orthogonalEdgeStyle;rounded=0;orthogonalLoop=1;jettySize=auto;html=1;" edge="1" parent="1" source="aR6v79AuM1WaJ04Hbi6L-17" target="aR6v79AuM1WaJ04Hbi6L-18">
          <mxGeometry relative="1" as="geometry" />
        </mxCell>
        <mxCell id="aR6v79AuM1WaJ04Hbi6L-23" value="" style="edgeStyle=orthogonalEdgeStyle;rounded=0;orthogonalLoop=1;jettySize=auto;html=1;" edge="1" parent="1" source="aR6v79AuM1WaJ04Hbi6L-17" target="aR6v79AuM1WaJ04Hbi6L-20">
          <mxGeometry relative="1" as="geometry" />
        </mxCell>
        <mxCell id="aR6v79AuM1WaJ04Hbi6L-17" value="Val &amp;lt; 0" style="rhombus;whiteSpace=wrap;html=1;" vertex="1" parent="1">
          <mxGeometry x="270" y="420" width="80" height="80" as="geometry" />
        </mxCell>
        <mxCell id="aR6v79AuM1WaJ04Hbi6L-38" value="" style="edgeStyle=orthogonalEdgeStyle;rounded=0;orthogonalLoop=1;jettySize=auto;html=1;" edge="1" parent="1" source="aR6v79AuM1WaJ04Hbi6L-18" target="aR6v79AuM1WaJ04Hbi6L-31">
          <mxGeometry relative="1" as="geometry" />
        </mxCell>
        <mxCell id="aR6v79AuM1WaJ04Hbi6L-18" value="&quot;El valor es Negativo&quot;" style="shape=document;whiteSpace=wrap;html=1;boundedLbl=1;" vertex="1" parent="1">
          <mxGeometry x="250" y="520" width="120" height="80" as="geometry" />
        </mxCell>
        <mxCell id="aR6v79AuM1WaJ04Hbi6L-19" value="" style="edgeStyle=orthogonalEdgeStyle;rounded=0;orthogonalLoop=1;jettySize=auto;html=1;" edge="1" parent="1" source="aR6v79AuM1WaJ04Hbi6L-20" target="aR6v79AuM1WaJ04Hbi6L-21">
          <mxGeometry relative="1" as="geometry" />
        </mxCell>
        <mxCell id="aR6v79AuM1WaJ04Hbi6L-27" value="" style="edgeStyle=orthogonalEdgeStyle;rounded=0;orthogonalLoop=1;jettySize=auto;html=1;" edge="1" parent="1" source="aR6v79AuM1WaJ04Hbi6L-20" target="aR6v79AuM1WaJ04Hbi6L-25">
          <mxGeometry relative="1" as="geometry" />
        </mxCell>
        <mxCell id="aR6v79AuM1WaJ04Hbi6L-20" value="Val == 0" style="rhombus;whiteSpace=wrap;html=1;" vertex="1" parent="1">
          <mxGeometry x="410" y="420" width="80" height="80" as="geometry" />
        </mxCell>
        <mxCell id="aR6v79AuM1WaJ04Hbi6L-37" value="" style="edgeStyle=orthogonalEdgeStyle;rounded=0;orthogonalLoop=1;jettySize=auto;html=1;" edge="1" parent="1" source="aR6v79AuM1WaJ04Hbi6L-21" target="aR6v79AuM1WaJ04Hbi6L-32">
          <mxGeometry relative="1" as="geometry" />
        </mxCell>
        <mxCell id="aR6v79AuM1WaJ04Hbi6L-21" value="&quot;El valor es Cero&quot;" style="shape=document;whiteSpace=wrap;html=1;boundedLbl=1;" vertex="1" parent="1">
          <mxGeometry x="390" y="520" width="120" height="80" as="geometry" />
        </mxCell>
        <mxCell id="aR6v79AuM1WaJ04Hbi6L-24" value="" style="edgeStyle=orthogonalEdgeStyle;rounded=0;orthogonalLoop=1;jettySize=auto;html=1;" edge="1" parent="1" source="aR6v79AuM1WaJ04Hbi6L-25" target="aR6v79AuM1WaJ04Hbi6L-26">
          <mxGeometry relative="1" as="geometry" />
        </mxCell>
        <mxCell id="aR6v79AuM1WaJ04Hbi6L-29" value="" style="edgeStyle=orthogonalEdgeStyle;rounded=0;orthogonalLoop=1;jettySize=auto;html=1;" edge="1" parent="1" source="aR6v79AuM1WaJ04Hbi6L-25" target="aR6v79AuM1WaJ04Hbi6L-28">
          <mxGeometry relative="1" as="geometry" />
        </mxCell>
        <mxCell id="aR6v79AuM1WaJ04Hbi6L-25" value="Val % 2&lt;br&gt;== 0" style="rhombus;whiteSpace=wrap;html=1;" vertex="1" parent="1">
          <mxGeometry x="550" y="420" width="80" height="80" as="geometry" />
        </mxCell>
        <mxCell id="aR6v79AuM1WaJ04Hbi6L-36" value="" style="edgeStyle=orthogonalEdgeStyle;rounded=0;orthogonalLoop=1;jettySize=auto;html=1;" edge="1" parent="1" source="aR6v79AuM1WaJ04Hbi6L-26" target="aR6v79AuM1WaJ04Hbi6L-33">
          <mxGeometry relative="1" as="geometry" />
        </mxCell>
        <mxCell id="aR6v79AuM1WaJ04Hbi6L-26" value="&quot;El valor es Par&quot;" style="shape=document;whiteSpace=wrap;html=1;boundedLbl=1;" vertex="1" parent="1">
          <mxGeometry x="530" y="520" width="120" height="80" as="geometry" />
        </mxCell>
        <mxCell id="aR6v79AuM1WaJ04Hbi6L-35" value="" style="edgeStyle=orthogonalEdgeStyle;rounded=0;orthogonalLoop=1;jettySize=auto;html=1;" edge="1" parent="1" source="aR6v79AuM1WaJ04Hbi6L-28" target="aR6v79AuM1WaJ04Hbi6L-34">
          <mxGeometry relative="1" as="geometry" />
        </mxCell>
        <mxCell id="aR6v79AuM1WaJ04Hbi6L-28" value="&quot;El valor es Impar&quot;" style="shape=document;whiteSpace=wrap;html=1;boundedLbl=1;" vertex="1" parent="1">
          <mxGeometry x="670" y="420" width="120" height="80" as="geometry" />
        </mxCell>
        <mxCell id="aR6v79AuM1WaJ04Hbi6L-76" value="" style="edgeStyle=orthogonalEdgeStyle;rounded=0;orthogonalLoop=1;jettySize=auto;html=1;entryX=0;entryY=0.5;entryDx=0;entryDy=0;" edge="1" parent="1" source="aR6v79AuM1WaJ04Hbi6L-30" target="aR6v79AuM1WaJ04Hbi6L-69">
          <mxGeometry relative="1" as="geometry">
            <mxPoint x="170" y="729.9999999999998" as="targetPoint" />
            <Array as="points">
              <mxPoint x="170" y="720" />
            </Array>
          </mxGeometry>
        </mxCell>
        <mxCell id="aR6v79AuM1WaJ04Hbi6L-30" value="Pos++" style="shape=parallelogram;perimeter=parallelogramPerimeter;whiteSpace=wrap;html=1;fixedSize=1;" vertex="1" parent="1">
          <mxGeometry x="110" y="620" width="120" height="40" as="geometry" />
        </mxCell>
        <mxCell id="aR6v79AuM1WaJ04Hbi6L-71" value="" style="edgeStyle=orthogonalEdgeStyle;rounded=0;orthogonalLoop=1;jettySize=auto;html=1;entryX=0.5;entryY=0;entryDx=0;entryDy=0;" edge="1" parent="1" source="aR6v79AuM1WaJ04Hbi6L-31" target="aR6v79AuM1WaJ04Hbi6L-69">
          <mxGeometry relative="1" as="geometry">
            <mxPoint x="310" y="729.9999999999998" as="targetPoint" />
            <Array as="points">
              <mxPoint x="310" y="680" />
              <mxPoint x="450" y="680" />
            </Array>
          </mxGeometry>
        </mxCell>
        <mxCell id="aR6v79AuM1WaJ04Hbi6L-31" value="Neg++" style="shape=parallelogram;perimeter=parallelogramPerimeter;whiteSpace=wrap;html=1;fixedSize=1;" vertex="1" parent="1">
          <mxGeometry x="250" y="620" width="120" height="40" as="geometry" />
        </mxCell>
        <mxCell id="aR6v79AuM1WaJ04Hbi6L-74" value="" style="edgeStyle=orthogonalEdgeStyle;rounded=0;orthogonalLoop=1;jettySize=auto;html=1;" edge="1" parent="1" source="aR6v79AuM1WaJ04Hbi6L-32" target="aR6v79AuM1WaJ04Hbi6L-69">
          <mxGeometry relative="1" as="geometry" />
        </mxCell>
        <mxCell id="aR6v79AuM1WaJ04Hbi6L-32" value="Cer++" style="shape=parallelogram;perimeter=parallelogramPerimeter;whiteSpace=wrap;html=1;fixedSize=1;" vertex="1" parent="1">
          <mxGeometry x="390" y="620" width="120" height="40" as="geometry" />
        </mxCell>
        <mxCell id="aR6v79AuM1WaJ04Hbi6L-73" value="" style="edgeStyle=orthogonalEdgeStyle;rounded=0;orthogonalLoop=1;jettySize=auto;html=1;entryX=0.5;entryY=0;entryDx=0;entryDy=0;" edge="1" parent="1" source="aR6v79AuM1WaJ04Hbi6L-33" target="aR6v79AuM1WaJ04Hbi6L-69">
          <mxGeometry relative="1" as="geometry">
            <mxPoint x="590" y="729.9999999999998" as="targetPoint" />
            <Array as="points">
              <mxPoint x="590" y="680" />
              <mxPoint x="450" y="680" />
            </Array>
          </mxGeometry>
        </mxCell>
        <mxCell id="aR6v79AuM1WaJ04Hbi6L-33" value="Par++" style="shape=parallelogram;perimeter=parallelogramPerimeter;whiteSpace=wrap;html=1;fixedSize=1;" vertex="1" parent="1">
          <mxGeometry x="530" y="620" width="120" height="40" as="geometry" />
        </mxCell>
        <mxCell id="aR6v79AuM1WaJ04Hbi6L-78" value="" style="edgeStyle=orthogonalEdgeStyle;rounded=0;orthogonalLoop=1;jettySize=auto;html=1;entryX=1;entryY=0.5;entryDx=0;entryDy=0;" edge="1" parent="1" source="aR6v79AuM1WaJ04Hbi6L-34" target="aR6v79AuM1WaJ04Hbi6L-69">
          <mxGeometry relative="1" as="geometry">
            <mxPoint x="730" y="630" as="targetPoint" />
            <Array as="points">
              <mxPoint x="730" y="720" />
            </Array>
          </mxGeometry>
        </mxCell>
        <mxCell id="aR6v79AuM1WaJ04Hbi6L-34" value="Imp++" style="shape=parallelogram;perimeter=parallelogramPerimeter;whiteSpace=wrap;html=1;fixedSize=1;" vertex="1" parent="1">
          <mxGeometry x="670" y="520" width="120" height="40" as="geometry" />
        </mxCell>
        <mxCell id="aR6v79AuM1WaJ04Hbi6L-58" value="" style="edgeStyle=orthogonalEdgeStyle;rounded=0;orthogonalLoop=1;jettySize=auto;html=1;" edge="1" parent="1" source="aR6v79AuM1WaJ04Hbi6L-59" target="aR6v79AuM1WaJ04Hbi6L-61">
          <mxGeometry relative="1" as="geometry" />
        </mxCell>
        <mxCell id="aR6v79AuM1WaJ04Hbi6L-59" value="PorPar = (Par * 100)&lt;br&gt;/ (Cont - 1)" style="shape=parallelogram;perimeter=parallelogramPerimeter;whiteSpace=wrap;html=1;fixedSize=1;" vertex="1" parent="1">
          <mxGeometry x="370" y="830" width="160" height="60" as="geometry" />
        </mxCell>
        <mxCell id="aR6v79AuM1WaJ04Hbi6L-60" value="" style="edgeStyle=orthogonalEdgeStyle;rounded=0;orthogonalLoop=1;jettySize=auto;html=1;" edge="1" parent="1" source="aR6v79AuM1WaJ04Hbi6L-61" target="aR6v79AuM1WaJ04Hbi6L-63">
          <mxGeometry relative="1" as="geometry" />
        </mxCell>
        <mxCell id="aR6v79AuM1WaJ04Hbi6L-61" value="PorImp = (Imp * 100)&lt;br&gt;/ (Cont - 1)" style="shape=parallelogram;perimeter=parallelogramPerimeter;whiteSpace=wrap;html=1;fixedSize=1;" vertex="1" parent="1">
          <mxGeometry x="370" y="912" width="160" height="60" as="geometry" />
        </mxCell>
        <mxCell id="aR6v79AuM1WaJ04Hbi6L-62" value="" style="edgeStyle=orthogonalEdgeStyle;rounded=0;orthogonalLoop=1;jettySize=auto;html=1;entryX=0.5;entryY=0;entryDx=0;entryDy=0;" edge="1" parent="1" source="aR6v79AuM1WaJ04Hbi6L-63" target="aR6v79AuM1WaJ04Hbi6L-64">
          <mxGeometry relative="1" as="geometry">
            <mxPoint x="450" y="1269" as="targetPoint" />
          </mxGeometry>
        </mxCell>
        <mxCell id="aR6v79AuM1WaJ04Hbi6L-63" value="&quot;El porcentaje de valores Pares es &quot; PorPar &quot;%&quot;&lt;br&gt;&quot;El porcentaje de valores Impares es &quot; PorImp &quot;%&quot;&lt;br&gt;&quot;Habian &quot; Pos &quot;valoes Positivos&quot;&lt;br&gt;&quot;Habian &quot; Neg &quot;valores Negatuvos&quot;&lt;br&gt;&quot;Habian &quot; Cer &quot;Ceros&quot;&lt;br&gt;&quot;Habian &quot; Par &quot;valores Pares&quot;&lt;br&gt;&quot;Habian &quot; Imp &quot;valores Impares&quot;" style="shape=document;whiteSpace=wrap;html=1;boundedLbl=1;" vertex="1" parent="1">
          <mxGeometry x="290" y="994" width="320" height="150" as="geometry" />
        </mxCell>
        <mxCell id="aR6v79AuM1WaJ04Hbi6L-64" value="Fin" style="ellipse;whiteSpace=wrap;html=1;" vertex="1" parent="1">
          <mxGeometry x="410" y="1160" width="80" height="40" as="geometry" />
        </mxCell>
        <mxCell id="aR6v79AuM1WaJ04Hbi6L-67" value="" style="edgeStyle=orthogonalEdgeStyle;rounded=0;orthogonalLoop=1;jettySize=auto;html=1;entryX=0;entryY=0.5;entryDx=0;entryDy=0;" edge="1" parent="1" source="aR6v79AuM1WaJ04Hbi6L-65" target="aR6v79AuM1WaJ04Hbi6L-4">
          <mxGeometry relative="1" as="geometry">
            <mxPoint x="-50" y="180" as="targetPoint" />
          </mxGeometry>
        </mxCell>
        <mxCell id="aR6v79AuM1WaJ04Hbi6L-65" value="1" style="ellipse;whiteSpace=wrap;html=1;aspect=fixed;" vertex="1" parent="1">
          <mxGeometry x="40" y="160" width="40" height="40" as="geometry" />
        </mxCell>
        <mxCell id="aR6v79AuM1WaJ04Hbi6L-69" value="1" style="ellipse;whiteSpace=wrap;html=1;aspect=fixed;" vertex="1" parent="1">
          <mxGeometry x="430" y="700" width="40" height="40" as="geometry" />
        </mxCell>
        <mxCell id="aR6v79AuM1WaJ04Hbi6L-79" value="2" style="ellipse;whiteSpace=wrap;html=1;aspect=fixed;" vertex="1" parent="1">
          <mxGeometry x="260" y="160" width="40" height="40" as="geometry" />
        </mxCell>
        <mxCell id="aR6v79AuM1WaJ04Hbi6L-85" value="" style="edgeStyle=orthogonalEdgeStyle;rounded=0;orthogonalLoop=1;jettySize=auto;html=1;entryX=0.5;entryY=0;entryDx=0;entryDy=0;" edge="1" parent="1" source="aR6v79AuM1WaJ04Hbi6L-81" target="aR6v79AuM1WaJ04Hbi6L-59">
          <mxGeometry relative="1" as="geometry">
            <mxPoint x="660" y="880" as="targetPoint" />
          </mxGeometry>
        </mxCell>
        <mxCell id="aR6v79AuM1WaJ04Hbi6L-81" value="2" style="ellipse;whiteSpace=wrap;html=1;aspect=fixed;" vertex="1" parent="1">
          <mxGeometry x="430" y="760" width="40" height="40" as="geometry" />
        </mxCell>
      </root>
    </mxGraphModel>
  </diagram>
</mxfile>
